# xmcd
#
# Track frame offsets:
#	150
#	13304
#	25696
#	40134
#	52492
#	65472
#	81113
#	99048
#	108500
#	119381
#	133809
#	148606
#	158864
#	173655
#	185729
#	197120
#	211943
#	221909
#	233848
#	244671
#	257792
#	270045
#	279613
#
# Disc length: 3913
#
# Revision: 1
# Processed by: cddbd v1.5.1PL0 Copyright (c) Steve Scherf et al.
# Submitted via: EasyCDDAExtractor 5.0.4.1
# Normalized: r0:DSETVAR1
#
DISCID=530f4717
DTITLE=Various Artist - Country Forever CD1
DYEAR=1900
DGENRE=
TTITLE0=Bobby Bare - Detroit City
TTITLE1=Bobby Bare - 500 Miles Away From Home
TTITLE2=Bellamy Brothers - If I Said You Had A Beautiful Body
TTITLE3=Charlie Rich - Behind Closed Doors
TTITLE4=Kenny Rogers - Ruby, Don't Take Your Love To Town
TTITLE5=Spears, Billie Jo - Blanket On The Ground
TTITLE6=Ricky Nelson - Garden Party
TTITLE7=Stick And Stones - Donna Fargo
TTITLE8=Johnny Cash - Cry! Cry! Cry!
TTITLE9=Loretta Lynn - Coal Miner's Daughter
TTITLE10=Frankie Laine - Sixteen Tons
TTITLE11=Dave Dudley - Six Days On The Road
TTITLE12=Jeannie C. Riley - Harper Valley PTA
TTITLE13=Hank Williams - Your Cheatin' Heart
TTITLE14=Patsy Cline - I've Loved And Lost Again
TTITLE15=Willie Nelson - Face Of A Fighter
TTITLE16=Jim Reeves - He'll Have To Go
TTITLE17=Wanda Jackson - Right Or Wrong
TTITLE18=Porter Wagoner - Enough To Make A Grown Man Cry
TTITLE19=Jean Shepard - Beautiful Lies
TTITLE20=Freddy Fender - Wasted Days And Wasted Nights
TTITLE21=Dolly Parton - Release Me ( Please Release Me )
TTITLE22=Sammy' Saloon - Country Guitar No.1 ( Instrumental )
EXTD=
EXTT0=
EXTT1=
EXTT2=
EXTT3=
EXTT4=
EXTT5=
EXTT6=
EXTT7=
EXTT8=
EXTT9=
EXTT10=
EXTT11=
EXTT12=
EXTT13=
EXTT14=
EXTT15=
EXTT16=
EXTT17=
EXTT18=
EXTT19=
EXTT20=
EXTT21=
EXTT22=
PLAYORDER=
